<svg xmlns="http://www.w3.org/2000/svg" xmlns:xlink="http://www.w3.org/1999/xlink" width="500" zoomAndPan="magnify" viewBox="0 0 375 374.999991" height="500" preserveAspectRatio="xMidYMid meet" version="1.0"><rect x="-37.5" width="450" fill="#ffffff" y="-37.499999" height="449.999989" fill-opacity="1"/><path stroke-linecap="butt" transform="matrix(0.1875, 0, 0, 0.1875, 0.0000045, 0)" fill="none" stroke-linejoin="miter" d="M 926.791704 1335.958421 L 1013.125043 1335.958421 L 1013.125043 1379.291757 L 926.791704 1379.291757 Z M 926.791704 1335.958421 " stroke="#bbc8eb" stroke-width="2.5" stroke-opacity="1" stroke-miterlimit="10"/><path stroke-linecap="butt" transform="matrix(0.1875, 0, 0, 0.1875, 0.0000045, 0)" fill="none" stroke-linejoin="miter" d="M 1013.125043 1335.958421 L 1099.479215 1335.958421 L 1099.479215 1379.291757 L 1013.125043 1379.291757 Z M 1013.125043 1335.958421 " stroke="#bbc8eb" stroke-width="2.5" stroke-opacity="1" stroke-miterlimit="10"/><path stroke-linecap="butt" transform="matrix(0.1875, 0, 0, 0.1875, 0.0000045, 0)" fill="none" stroke-linejoin="miter" d="M 1605.666748 982.520898 L 1692.000087 982.520898 L 1692.000087 1025.833401 L 1605.666748 1025.833401 Z M 1605.666748 982.520898 " stroke="#bbc8eb" stroke-width="2.5" stroke-opacity="1" stroke-miterlimit="10"/><path stroke-linecap="butt" transform="matrix(0.1875, 0, 0, 0.1875, 0.0000045, 0)" fill="none" stroke-linejoin="miter" d="M 1692.000087 982.520898 L 1778.333426 982.520898 L 1778.333426 1025.833401 L 1692.000087 1025.833401 Z M 1692.000087 982.520898 " stroke="#bbc8eb" stroke-width="2.5" stroke-opacity="1" stroke-miterlimit="10"/><path stroke-linecap="butt" transform="matrix(0.1875, 0, 0, 0.1875, 0.0000045, 0)" fill="none" stroke-linejoin="miter" d="M 784.291694 508.458367 L 870.625033 508.458367 L 870.625033 551.791703 L 784.291694 551.791703 Z M 784.291694 508.458367 " stroke="#bbc8eb" stroke-width="2.5" stroke-opacity="1" stroke-miterlimit="10"/><path stroke-linecap="butt" transform="matrix(0.1875, 0, 0, 0.1875, 0.0000045, 0)" fill="none" stroke-linejoin="miter" d="M 870.625033 508.458367 L 956.979206 508.458367 L 956.979206 551.791703 L 870.625033 551.791703 Z M 870.625033 508.458367 " stroke="#bbc8eb" stroke-width="2.5" stroke-opacity="1" stroke-miterlimit="10"/><path fill="#708cd5" d="M 51.5 139.503906 L 148.65625 139.503906 L 148.65625 301.855469 L 51.5 301.855469 Z M 51.5 139.503906 " fill-opacity="1" fill-rule="nonzero"/><path fill="#d3dfff" d="M 57.65625 145.761719 L 142.5 145.761719 L 142.5 301.855469 L 57.65625 301.855469 Z M 57.65625 145.761719 " fill-opacity="1" fill-rule="nonzero"/><path stroke-linecap="butt" transform="matrix(0.1875, 0, 0, 0.1875, 0.0000045, 0)" fill="none" stroke-linejoin="miter" d="M 374.416667 851.854223 L 693.083355 851.854223 L 693.083355 1035.875068 L 374.416667 1035.875068 Z M 374.416667 851.854223 " stroke="#ffffff" stroke-width="3.75" stroke-opacity="1" stroke-miterlimit="10"/><path stroke-linecap="butt" transform="matrix(0.1875, 0, 0, 0.1875, 0.0000045, 0)" fill="none" stroke-linejoin="miter" d="M 374.416667 1296.687585 L 693.083355 1296.687585 L 693.083355 1548.979268 L 374.416667 1548.979268 Z M 374.416667 1296.687585 " stroke="#ffffff" stroke-width="3.75" stroke-opacity="1" stroke-miterlimit="10"/><path fill="#ffffff" d="M 129.898438 213.648438 C 129.898438 209.503906 126.3125 206.199219 122.074219 206.664062 C 118.835938 207.023438 116.226562 209.648438 115.886719 212.886719 C 115.613281 215.457031 116.734375 217.769531 118.574219 219.199219 L 118.574219 224.652344 C 118.574219 227.027344 120.5 228.953125 122.871094 228.953125 C 125.246094 228.953125 127.171875 227.027344 127.171875 224.652344 L 127.171875 219.199219 C 128.828125 217.914062 129.898438 215.910156 129.898438 213.648438 Z M 129.898438 213.648438 " fill-opacity="1" fill-rule="nonzero"/><path fill="#1f3c88" d="M 125.179688 224.769531 L 125.179688 219.316406 C 127.019531 217.886719 128.136719 215.570312 127.867188 213.003906 C 127.527344 209.765625 124.917969 207.140625 121.679688 206.78125 C 121.601562 206.773438 121.523438 206.777344 121.445312 206.769531 C 122.15625 206.625 122.902344 206.582031 123.671875 206.664062 C 126.910156 207.023438 129.519531 209.648438 129.859375 212.886719 C 130.128906 215.453125 129.011719 217.769531 127.171875 219.199219 L 127.171875 224.652344 C 127.171875 227.027344 125.246094 228.953125 122.871094 228.953125 C 122.617188 228.953125 122.371094 228.925781 122.128906 228.882812 C 123.894531 228.347656 125.179688 226.710938 125.179688 224.769531 Z M 125.179688 224.769531 " fill-opacity="0.3" fill-rule="nonzero"/><path fill="#1f3c88" d="M 117.484375 185.703125 L 83.140625 185.703125 C 80.210938 185.703125 77.8125 183.304688 77.8125 180.375 L 77.8125 175.472656 C 77.8125 172.542969 80.210938 170.148438 83.140625 170.148438 L 117.484375 170.148438 C 120.414062 170.148438 122.8125 172.542969 122.8125 175.472656 L 122.8125 180.375 C 122.8125 183.304688 120.414062 185.703125 117.484375 185.703125 Z M 117.484375 185.703125 " fill-opacity="0.3" fill-rule="nonzero"/><path fill="#1f3c88" d="M 117.484375 184.140625 L 83.140625 184.140625 C 80.210938 184.140625 77.8125 181.742188 77.8125 178.8125 L 77.8125 173.910156 C 77.8125 170.980469 80.210938 168.585938 83.140625 168.585938 L 117.484375 168.585938 C 120.414062 168.585938 122.8125 170.980469 122.8125 173.910156 L 122.8125 178.8125 C 122.8125 181.742188 120.414062 184.140625 117.484375 184.140625 Z M 117.484375 184.140625 " fill-opacity="1" fill-rule="nonzero"/><path fill="#ffffff" d="M 82.660156 177.988281 C 82.652344 177.847656 82.734375 177.769531 82.871094 177.769531 L 83.800781 177.769531 C 83.925781 177.769531 83.992188 177.835938 84.019531 177.972656 C 84.085938 178.277344 84.339844 178.429688 84.835938 178.429688 C 85.386719 178.429688 85.5625 178.21875 85.5625 177.972656 C 85.5625 177.625 85.140625 177.472656 84.625 177.296875 C 83.792969 177.011719 82.734375 176.664062 82.734375 175.371094 C 82.734375 174.191406 83.699219 173.601562 84.703125 173.601562 C 85.691406 173.601562 86.636719 174.132812 86.738281 175.355469 C 86.746094 175.5 86.660156 175.574219 86.527344 175.574219 L 85.597656 175.574219 C 85.472656 175.574219 85.402344 175.507812 85.378906 175.371094 C 85.308594 175.0625 85.089844 174.917969 84.703125 174.917969 C 84.28125 174.917969 84.085938 175.128906 84.085938 175.371094 C 84.085938 175.726562 84.433594 175.894531 84.921875 176.074219 C 85.765625 176.367188 86.914062 176.671875 86.914062 177.972656 C 86.914062 179.152344 85.96875 179.746094 84.835938 179.746094 C 83.730469 179.746094 82.761719 179.214844 82.660156 177.988281 Z M 82.660156 177.988281 " fill-opacity="1" fill-rule="nonzero"/><path fill="#ffffff" d="M 87.503906 177.804688 L 87.503906 173.929688 C 87.503906 173.792969 87.578125 173.71875 87.714844 173.71875 L 88.644531 173.71875 C 88.777344 173.71875 88.855469 173.792969 88.855469 173.929688 L 88.855469 177.683594 C 88.855469 178.132812 89.066406 178.429688 89.699219 178.429688 C 90.332031 178.429688 90.542969 178.132812 90.542969 177.683594 L 90.542969 173.929688 C 90.542969 173.792969 90.617188 173.71875 90.753906 173.71875 L 91.679688 173.71875 C 91.816406 173.71875 91.894531 173.792969 91.894531 173.929688 L 91.894531 177.804688 C 91.894531 179.070312 90.914062 179.746094 89.699219 179.746094 C 88.484375 179.746094 87.503906 179.070312 87.503906 177.804688 Z M 87.503906 177.804688 " fill-opacity="1" fill-rule="nonzero"/><path fill="#ffffff" d="M 92.566406 176.671875 C 92.566406 174.933594 93.855469 173.601562 95.636719 173.601562 C 96.988281 173.601562 98.136719 174.445312 98.480469 175.675781 C 98.515625 175.820312 98.441406 175.914062 98.296875 175.914062 L 97.300781 175.914062 C 97.183594 175.914062 97.113281 175.855469 97.0625 175.746094 C 96.828125 175.230469 96.28125 174.917969 95.636719 174.917969 C 94.589844 174.917969 93.917969 175.617188 93.917969 176.671875 C 93.917969 177.726562 94.589844 178.429688 95.636719 178.429688 C 96.28125 178.429688 96.828125 178.117188 97.0625 177.601562 C 97.113281 177.492188 97.183594 177.433594 97.300781 177.433594 L 98.296875 177.433594 C 98.441406 177.433594 98.515625 177.515625 98.480469 177.652344 C 98.152344 178.882812 96.996094 179.746094 95.636719 179.746094 C 93.855469 179.746094 92.566406 178.410156 92.566406 176.671875 Z M 92.566406 176.671875 " fill-opacity="1" fill-rule="nonzero"/><path fill="#ffffff" d="M 98.867188 176.671875 C 98.867188 174.933594 100.160156 173.601562 101.941406 173.601562 C 103.292969 173.601562 104.4375 174.445312 104.785156 175.675781 C 104.820312 175.820312 104.742188 175.914062 104.597656 175.914062 L 103.601562 175.914062 C 103.484375 175.914062 103.417969 175.855469 103.367188 175.746094 C 103.128906 175.230469 102.582031 174.917969 101.941406 174.917969 C 100.894531 174.917969 100.21875 175.617188 100.21875 176.671875 C 100.21875 177.726562 100.894531 178.429688 101.941406 178.429688 C 102.582031 178.429688 103.128906 178.117188 103.367188 177.601562 C 103.417969 177.492188 103.484375 177.433594 103.601562 177.433594 L 104.597656 177.433594 C 104.742188 177.433594 104.820312 177.515625 104.785156 177.652344 C 104.457031 178.882812 103.300781 179.746094 101.941406 179.746094 C 100.160156 179.746094 98.867188 178.410156 98.867188 176.671875 Z M 98.867188 176.671875 " fill-opacity="1" fill-rule="nonzero"/><path fill="#ffffff" d="M 108.96875 178.539062 L 108.96875 179.414062 C 108.96875 179.550781 108.894531 179.625 108.757812 179.625 L 105.636719 179.625 C 105.5 179.625 105.425781 179.550781 105.425781 179.414062 L 105.425781 173.929688 C 105.425781 173.792969 105.5 173.71875 105.636719 173.71875 L 108.714844 173.71875 C 108.851562 173.71875 108.925781 173.792969 108.925781 173.929688 L 108.925781 174.808594 C 108.925781 174.941406 108.851562 175.019531 108.714844 175.019531 L 106.773438 175.019531 L 106.773438 176.003906 L 108.503906 176.003906 C 108.640625 176.003906 108.714844 176.082031 108.714844 176.214844 L 108.714844 177.0625 C 108.714844 177.195312 108.640625 177.273438 108.503906 177.273438 L 106.773438 177.273438 L 106.773438 178.328125 L 108.757812 178.328125 C 108.894531 178.328125 108.96875 178.402344 108.96875 178.539062 Z M 108.96875 178.539062 " fill-opacity="1" fill-rule="nonzero"/><path fill="#ffffff" d="M 109.398438 177.988281 C 109.390625 177.847656 109.472656 177.769531 109.609375 177.769531 L 110.539062 177.769531 C 110.664062 177.769531 110.730469 177.835938 110.757812 177.972656 C 110.824219 178.277344 111.078125 178.429688 111.574219 178.429688 C 112.125 178.429688 112.300781 178.21875 112.300781 177.972656 C 112.300781 177.625 111.878906 177.472656 111.363281 177.296875 C 110.53125 177.011719 109.472656 176.664062 109.472656 175.371094 C 109.472656 174.191406 110.4375 173.601562 111.441406 173.601562 C 112.429688 173.601562 113.375 174.132812 113.476562 175.355469 C 113.484375 175.5 113.398438 175.574219 113.265625 175.574219 L 112.335938 175.574219 C 112.210938 175.574219 112.140625 175.507812 112.117188 175.371094 C 112.046875 175.0625 111.828125 174.917969 111.441406 174.917969 C 111.019531 174.917969 110.824219 175.128906 110.824219 175.371094 C 110.824219 175.726562 111.171875 175.894531 111.660156 176.074219 C 112.503906 176.367188 113.652344 176.671875 113.652344 177.972656 C 113.652344 179.152344 112.707031 179.746094 111.574219 179.746094 C 110.46875 179.746094 109.5 179.214844 109.398438 177.988281 Z M 109.398438 177.988281 " fill-opacity="1" fill-rule="nonzero"/><path fill="#ffffff" d="M 113.996094 177.988281 C 113.988281 177.847656 114.074219 177.769531 114.207031 177.769531 L 115.136719 177.769531 C 115.261719 177.769531 115.332031 177.835938 115.355469 177.972656 C 115.421875 178.277344 115.675781 178.429688 116.175781 178.429688 C 116.722656 178.429688 116.898438 178.21875 116.898438 177.972656 C 116.898438 177.625 116.476562 177.472656 115.964844 177.296875 C 115.128906 177.011719 114.074219 176.664062 114.074219 175.371094 C 114.074219 174.191406 115.035156 173.601562 116.039062 173.601562 C 117.027344 173.601562 117.972656 174.132812 118.074219 175.355469 C 118.082031 175.5 117.996094 175.574219 117.863281 175.574219 L 116.933594 175.574219 C 116.808594 175.574219 116.738281 175.507812 116.714844 175.371094 C 116.644531 175.0625 116.425781 174.917969 116.039062 174.917969 C 115.617188 174.917969 115.421875 175.128906 115.421875 175.371094 C 115.421875 175.726562 115.769531 175.894531 116.257812 176.074219 C 117.101562 176.367188 118.25 176.671875 118.25 177.972656 C 118.25 179.152344 117.304688 179.746094 116.171875 179.746094 C 115.070312 179.746094 114.097656 179.214844 113.996094 177.988281 Z M 113.996094 177.988281 " fill-opacity="1" fill-rule="nonzero"/><path fill="#ee6f57" d="M 288.28125 271.640625 C 297.539062 272.34375 302.523438 277.734375 306.328125 281.953125 C 310.480469 286.554688 314.703125 289.179688 316.09375 293.4375 C 304.21875 292.65625 290.390625 285.585938 288.28125 271.640625 Z M 288.28125 271.640625 " fill-opacity="1" fill-rule="nonzero"/><path fill="#ae5140" d="M 295.039062 257.320312 C 295.039062 257.320312 308.164062 265.078125 310.039062 273.359375 C 311.65625 280.511719 313.402344 288.144531 312.332031 294.140625 C 299.140625 285.585938 294.101562 272.578125 295.039062 257.320312 Z M 295.039062 257.320312 " fill-opacity="1" fill-rule="nonzero"/><path fill="#ae5140" d="M 336.445312 274.335938 C 328.496094 274.390625 323.066406 277.796875 318.867188 280.664062 C 314.667969 283.53125 313.769531 288.625 312.1875 291.941406 C 323.421875 290.199219 335.394531 280.390625 336.445312 274.335938 Z M 336.445312 274.335938 " fill-opacity="1" fill-rule="nonzero"/><path fill="#ee6f57" d="M 325.726562 244.441406 C 329.417969 252.90625 330.117188 262.644531 327.664062 271.550781 C 325.210938 280.457031 319.628906 288.46875 312.121094 293.851562 C 301.265625 275.402344 309.425781 251.511719 325.726562 244.441406 Z M 325.726562 244.441406 " fill-opacity="1" fill-rule="nonzero"/><path fill="#ffffff" d="M 313.929688 283.796875 L 321.875 253.769531 L 322.328125 253.890625 L 314.382812 283.917969 Z M 313.929688 283.796875 " fill-opacity="1" fill-rule="nonzero"/><path fill="#ffffff" d="M 317.351562 253.820312 L 317.808594 253.71875 L 319.859375 263.195312 L 319.402344 263.292969 Z M 317.351562 253.820312 " fill-opacity="1" fill-rule="nonzero"/><path fill="#ffffff" d="M 317.765625 269.527344 L 325.042969 261.285156 L 325.394531 261.59375 L 318.117188 269.839844 Z M 317.765625 269.527344 " fill-opacity="1" fill-rule="nonzero"/><path fill="#ffffff" d="M 312.402344 265.753906 L 312.839844 265.582031 L 316.574219 275.144531 L 316.136719 275.316406 Z M 312.402344 265.753906 " fill-opacity="1" fill-rule="nonzero"/><path fill="#ffffff" d="M 314.898438 280.414062 L 322.648438 274.113281 L 322.945312 274.476562 L 315.195312 280.777344 Z M 314.898438 280.414062 " fill-opacity="1" fill-rule="nonzero"/><path fill="#ae5140" d="M 317.75 301.902344 L 304.046875 301.902344 C 300.140625 301.902344 296.855469 298.96875 296.414062 295.085938 L 295.78125 289.480469 L 326.015625 289.480469 L 325.382812 295.085938 C 324.941406 298.96875 321.65625 301.902344 317.75 301.902344 Z M 317.75 301.902344 " fill-opacity="1" fill-rule="nonzero"/><path stroke-linecap="butt" transform="matrix(0.1875, 0, 0, 0.1875, 0.0000045, 0)" fill="none" stroke-linejoin="miter" d="M 149.999986 1610.000106 L 1865.000098 1610.000106 " stroke="#102048" stroke-width="3.75" stroke-opacity="1" stroke-miterlimit="10"/><path fill="#102048" d="M 189.335938 170.546875 C 189.335938 170.546875 183.042969 174.214844 183.925781 176.832031 L 187.695312 177.539062 Z M 189.335938 170.546875 " fill-opacity="1" fill-rule="nonzero"/><path fill="#f9b384" d="M 188.304688 170.222656 L 184.75 172.519531 C 183.957031 172.671875 182.027344 171.53125 180.917969 169.242188 C 180.914062 169.242188 180.914062 169.242188 180.914062 169.242188 C 180.695312 169.117188 180.480469 168.933594 180.292969 168.75 C 179.980469 168.4375 179.867188 168.011719 179.9375 167.621094 C 180.003906 167.257812 180.222656 166.933594 180.589844 166.75 C 180.628906 165.871094 180.859375 165.222656 181.671875 165.285156 C 181.664062 164.46875 182.113281 163.929688 183.566406 164.011719 C 183.445312 162.839844 184.042969 162.558594 185.023438 162.746094 C 185.734375 162.882812 186.382812 163.261719 186.894531 163.78125 C 187.042969 163.929688 187.183594 164.082031 187.3125 164.234375 C 187.492188 164.4375 187.652344 164.664062 187.78125 164.894531 C 188.261719 165.699219 188.484375 166.628906 188.433594 167.570312 Z M 188.304688 170.222656 " fill-opacity="1" fill-rule="nonzero"/><path fill="#e28b6d" d="M 186.675781 166.722656 L 185.730469 165.699219 C 185.105469 165.972656 184.578125 166.019531 184.164062 165.835938 C 183.691406 165.628906 183.554688 165.199219 183.546875 165.179688 L 183.523438 165.101562 L 184.785156 164.035156 C 185.167969 163.746094 186.085938 163.710938 186.546875 163.808594 L 186.496094 164.054688 C 186.042969 163.957031 185.222656 164.019531 184.941406 164.226562 L 183.816406 165.179688 C 183.871094 165.289062 184.003906 165.492188 184.269531 165.609375 C 184.632812 165.765625 185.117188 165.707031 185.710938 165.433594 L 185.792969 165.394531 L 186.859375 166.554688 Z M 186.675781 166.722656 " fill-opacity="1" fill-rule="nonzero"/><path fill="#e28b6d" d="M 181.632812 169.492188 C 181.410156 169.492188 181.164062 169.445312 180.882812 169.359375 L 180.957031 169.121094 C 181.707031 169.355469 182.152344 169.257812 182.496094 168.789062 L 182.695312 168.933594 C 182.425781 169.308594 182.082031 169.492188 181.632812 169.492188 Z M 181.632812 169.492188 " fill-opacity="1" fill-rule="nonzero"/><path fill="#e28b6d" d="M 184.726562 168.660156 C 184.421875 168.660156 184.074219 168.492188 183.5625 168.132812 C 182.757812 167.5625 182.230469 166.617188 182.210938 166.578125 L 182.429688 166.457031 C 182.433594 166.46875 182.949219 167.394531 183.707031 167.929688 C 184.515625 168.5 184.789062 168.496094 185.136719 168.269531 C 185.179688 168.238281 185.207031 168.199219 185.214844 168.144531 C 185.257812 167.878906 184.941406 167.402344 184.828125 167.257812 C 184.792969 167.210938 184.035156 166.164062 183.824219 165.605469 L 184.058594 165.515625 C 184.257812 166.042969 185.019531 167.097656 185.027344 167.109375 C 185.078125 167.171875 185.53125 167.765625 185.460938 168.183594 C 185.441406 168.308594 185.375 168.410156 185.273438 168.476562 C 185.089844 168.597656 184.917969 168.660156 184.726562 168.660156 Z M 184.726562 168.660156 " fill-opacity="1" fill-rule="nonzero"/><path fill="#e28b6d" d="M 182.882812 168.976562 C 182.347656 168.976562 181.789062 168.726562 181.304688 168.007812 C 181.285156 167.976562 181.269531 167.953125 181.257812 167.941406 L 181.402344 167.742188 C 181.441406 167.761719 181.460938 167.792969 181.511719 167.867188 C 181.753906 168.226562 182.5 169.328125 184.101562 168.308594 L 184.234375 168.519531 C 183.84375 168.769531 183.371094 168.976562 182.882812 168.976562 Z M 182.882812 168.976562 " fill-opacity="1" fill-rule="nonzero"/><path fill="#e28b6d" d="M 185.726562 168.175781 C 185.609375 168.175781 185.480469 168.15625 185.339844 168.113281 L 185.410156 167.875 C 185.703125 167.960938 185.917969 167.941406 186.054688 167.808594 C 186.40625 167.464844 186.230469 166.445312 186.132812 166.082031 L 186.375 166.015625 C 186.390625 166.074219 186.757812 167.472656 186.226562 167.988281 C 186.097656 168.113281 185.929688 168.175781 185.726562 168.175781 Z M 185.726562 168.175781 " fill-opacity="1" fill-rule="nonzero"/><path fill="#f9b384" d="M 191.179688 173.6875 L 186.75 177.800781 L 185.570312 175.761719 L 184.140625 173.289062 L 183.484375 172.152344 L 183.070312 171.441406 L 188.246094 168.753906 L 188.363281 168.957031 L 189.316406 170.554688 L 189.324219 170.5625 Z M 191.179688 173.6875 " fill-opacity="1" fill-rule="nonzero"/><path fill="#f9b384" d="M 229.019531 155.742188 L 227.523438 167.996094 L 218.828125 167.617188 L 219.359375 164.242188 L 219.910156 160.71875 L 220.03125 159.941406 Z M 229.019531 155.742188 " fill-opacity="1" fill-rule="nonzero"/><path fill="#102048" d="M 225.574219 160.585938 C 225.574219 160.585938 224.125 163.53125 219.359375 164.242188 L 219.910156 160.71875 Z M 225.574219 160.585938 " fill-opacity="1" fill-rule="nonzero"/><path fill="#f9b384" d="M 256.601562 138.964844 C 256.832031 134.847656 257.5 131.351562 259.238281 129.355469 L 266.738281 132.578125 C 265.546875 136.410156 263.710938 139.671875 261.757812 142.832031 Z M 256.601562 138.964844 " fill-opacity="1" fill-rule="nonzero"/><path fill="#ee6f57" d="M 253.789062 227.5 L 263.867188 227.382812 L 265.507812 244.257812 C 263.121094 242.03125 261.15625 238.84375 259.53125 234.882812 L 252.734375 232.539062 Z M 253.789062 227.5 " fill-opacity="1" fill-rule="nonzero"/><path fill="#ee6f57" d="M 217.089844 268.890625 L 221.011719 280.664062 L 209.101562 289.328125 C 209.542969 286.097656 211.007812 282.652344 213.300781 279.035156 L 211.285156 272.132812 Z M 217.089844 268.890625 " fill-opacity="1" fill-rule="nonzero"/><path fill="#1f3c88" d="M 212.65625 237.578125 L 220.625 271.09375 L 208.90625 275.3125 L 198.230469 246.53125 C 196.628906 242.210938 196.296875 237.53125 197.269531 233.03125 L 204.453125 199.84375 L 206.09375 192.34375 L 218.28125 195.15625 L 220.371094 210.824219 L 220.625 212.734375 L 216.648438 225.125 Z M 212.65625 237.578125 " fill-opacity="1" fill-rule="nonzero"/><path fill="#102048" d="M 220.625 212.734375 L 215.761719 227.851562 C 212.949219 218.726562 216.640625 207.695312 216.640625 207.695312 L 220.371094 210.824219 Z M 220.625 212.734375 " fill-opacity="0.6" fill-rule="nonzero"/><path fill="#1f3c88" d="M 230.78125 198.125 L 240.15625 227.03125 L 256.09375 226.25 L 254.6875 240.46875 L 236.746094 242.578125 C 233.199219 242.996094 229.789062 241.054688 228.339844 237.789062 L 208.90625 194.0625 L 229.53125 193.28125 Z M 230.78125 198.125 " fill-opacity="1" fill-rule="nonzero"/><path fill="#102048" d="M 229.050781 154.335938 C 231.539062 152.878906 232.765625 150.65625 232.625 148.203125 C 232.4375 145.015625 229.960938 142.34375 226.804688 141.839844 C 224.300781 141.441406 221.410156 142.007812 218.269531 143.179688 C 212.425781 138.695312 206.664062 149.765625 216.5 152.605469 Z M 229.050781 154.335938 " fill-opacity="1" fill-rule="nonzero"/><path fill="#f9b384" d="M 229.492188 155.742188 C 229.492188 155.742188 227.800781 162.429688 220.886719 162.3125 C 217.789062 162.261719 216.605469 160.398438 216.246094 158.351562 C 216.023438 157.117188 216.109375 155.808594 216.25 154.800781 C 216.394531 153.765625 216.601562 153.046875 216.601562 153.046875 L 216.324219 149.136719 L 220.46875 146.757812 L 228.90625 148.476562 Z M 229.492188 155.742188 " fill-opacity="1" fill-rule="nonzero"/><path fill="#102048" d="M 228.515625 153.90625 C 229.0625 152.265625 228.4375 150.351562 226.25 149.570312 C 223.351562 151.328125 218.984375 151.054688 215.546875 149.375 L 215.039062 148.125 L 217.695312 145.585938 L 224.882812 144.800781 L 230.390625 146.910156 L 230.546875 150.191406 L 230.078125 152.925781 Z M 228.515625 153.90625 " fill-opacity="1" fill-rule="nonzero"/><path fill="#102048" d="M 218.945312 152.871094 C 218.945312 153.390625 218.675781 153.808594 218.347656 153.808594 C 218.015625 153.808594 217.746094 153.390625 217.746094 152.871094 C 217.746094 152.351562 218.015625 151.933594 218.347656 151.933594 C 218.675781 151.933594 218.945312 152.351562 218.945312 152.871094 Z M 218.945312 152.871094 " fill-opacity="1" fill-rule="nonzero"/><path fill="#102048" d="M 224.109375 153.394531 C 224.0625 153.933594 223.75 154.347656 223.40625 154.320312 C 223.0625 154.292969 222.816406 153.832031 222.863281 153.292969 C 222.90625 152.757812 223.21875 152.34375 223.5625 152.371094 C 223.90625 152.398438 224.152344 152.855469 224.109375 153.394531 Z M 224.109375 153.394531 " fill-opacity="1" fill-rule="nonzero"/><path fill="#102048" d="M 220.835938 152.898438 C 220.667969 153.265625 220.480469 153.613281 220.277344 153.964844 C 220.074219 154.324219 219.824219 154.636719 219.675781 154.960938 C 219.523438 155.28125 219.511719 155.59375 219.675781 155.902344 C 219.835938 156.222656 220.101562 156.53125 220.320312 156.871094 L 220.183594 156.992188 C 219.882812 156.730469 219.558594 156.484375 219.320312 156.109375 C 219.195312 155.921875 219.109375 155.6875 219.101562 155.441406 C 219.09375 155.199219 219.160156 154.964844 219.253906 154.761719 C 219.449219 154.363281 219.714844 154.054688 219.949219 153.746094 C 220.179688 153.429688 220.421875 153.105469 220.683594 152.800781 Z M 220.835938 152.898438 " fill-opacity="1" fill-rule="nonzero"/><path fill="#ffffff" d="M 218.9375 158.628906 C 218.839844 158.609375 223.015625 157.914062 223.015625 157.914062 C 222.804688 160.847656 219.671875 161.15625 218.9375 158.628906 Z M 218.9375 158.628906 " fill-opacity="1" fill-rule="nonzero"/><path fill="#102048" d="M 206.21875 198.632812 C 214.375 201.242188 222.226562 201.410156 229.6875 198.390625 L 231.554688 192.070312 L 206.878906 193.15625 Z M 206.21875 198.632812 " fill-opacity="0.6" fill-rule="nonzero"/><path fill="#ffffff" d="M 229.53125 178.632812 L 227.539062 196.796875 C 224.808594 197.503906 222.195312 197.953125 219.726562 198.085938 C 218.332031 198.160156 216.980469 198.132812 215.6875 197.992188 C 213.3125 197.734375 211.109375 197.089844 209.117188 196 C 208.476562 195.648438 207.859375 195.25 207.265625 194.804688 L 210.910156 180.148438 L 210.910156 180.136719 L 212.226562 174.839844 L 213.007812 171.71875 L 219.15625 165.511719 C 220.914062 167.09375 224.375 167.320312 227.832031 165.859375 L 228.085938 167.769531 Z M 229.53125 178.632812 " fill-opacity="1" fill-rule="nonzero"/><path fill="#1f3c88" d="M 229.53125 178.632812 L 227.539062 196.796875 C 224.808594 197.503906 222.195312 197.953125 219.726562 198.085938 C 220.214844 192.109375 221.214844 178.238281 226.894531 168.320312 L 228.085938 167.769531 Z M 229.53125 178.632812 " fill-opacity="0.3" fill-rule="nonzero"/><path fill="#1f3c88" d="M 217.871094 167.792969 C 218.355469 168.691406 219.0625 169.410156 219.914062 169.832031 C 220.761719 170.257812 221.722656 170.421875 222.679688 170.386719 C 223.640625 170.363281 224.601562 170.144531 225.53125 169.824219 C 226.460938 169.5 227.355469 169.0625 228.242188 168.554688 C 227.535156 169.292969 226.675781 169.894531 225.738281 170.335938 C 224.796875 170.777344 223.761719 171.046875 222.703125 171.089844 C 221.648438 171.117188 220.546875 170.894531 219.640625 170.304688 C 218.726562 169.730469 218.078125 168.792969 217.871094 167.792969 Z M 217.871094 167.792969 " fill-opacity="0.3" fill-rule="nonzero"/><path fill="#1f3c88" d="M 215.6875 197.992188 C 213.3125 197.734375 211.109375 197.089844 209.117188 196 C 209.550781 192.5625 210.386719 184.945312 210.910156 180.148438 L 210.910156 180.136719 C 211.183594 177.660156 211.367188 175.9375 211.367188 175.9375 L 212.226562 174.839844 L 218.75 166.5625 C 219.320312 178.308594 217.988281 191.125 215.6875 197.992188 Z M 215.6875 197.992188 " fill-opacity="0.3" fill-rule="nonzero"/><path fill="#708cd5" d="M 219.15625 165.511719 C 218.867188 175.632812 215.152344 196.40625 211.71875 203.746094 C 208.144531 203.671875 201.539062 203.089844 199.179688 202.070312 L 207.03125 180.390625 C 203.753906 182.726562 200.023438 185.234375 196.464844 187.222656 C 194.339844 188.40625 191.292969 188.042969 189.957031 186.015625 L 183.925781 176.832031 C 184.414062 176.582031 184.863281 176.296875 185.285156 175.984375 C 187.121094 174.617188 188.359375 172.703125 189.335938 170.546875 L 195.429688 177.8125 L 205.835938 169.210938 C 207 168.238281 208.398438 167.582031 209.882812 167.292969 Z M 219.15625 165.511719 " fill-opacity="1" fill-rule="nonzero"/><path fill="#708cd5" d="M 227.78125 165.875 C 222.917969 173.960938 221.453125 190.453125 221.914062 202.773438 C 229.0625 203.75 234.6875 198.789062 234.6875 198.789062 L 236.035156 178.867188 L 248.933594 166.664062 C 250.597656 165.003906 252.015625 163.109375 253.136719 161.042969 L 263.28125 142.363281 L 256.015625 137.421875 L 244.140625 156.25 L 236.910156 163.769531 C 235.398438 165.34375 233.277344 166.175781 231.097656 166.046875 Z M 227.78125 165.875 " fill-opacity="1" fill-rule="nonzero"/><path fill="#f9b384" d="M 231.875 154.882812 C 231.640625 156.445312 230.121094 157.5 228.867188 157.5 C 227.609375 157.5 227.625 156.4375 227.625 154.9375 C 227.625 153.433594 228.625 152.148438 229.882812 152.148438 C 231.136719 152.148438 232.132812 153.140625 231.875 154.882812 Z M 231.875 154.882812 " fill-opacity="1" fill-rule="nonzero"/><path fill="#fc8879" d="M 227.25 156.457031 C 227.25 156.695312 227.207031 156.925781 227.113281 157.144531 C 227.023438 157.367188 226.894531 157.558594 226.726562 157.726562 C 226.554688 157.898438 226.363281 158.027344 226.140625 158.117188 C 225.921875 158.210938 225.691406 158.253906 225.453125 158.253906 C 225.214844 158.253906 224.984375 158.210938 224.765625 158.117188 C 224.546875 158.027344 224.351562 157.898438 224.183594 157.726562 C 224.011719 157.558594 223.882812 157.367188 223.792969 157.144531 C 223.703125 156.925781 223.65625 156.695312 223.65625 156.457031 C 223.65625 156.21875 223.703125 155.988281 223.792969 155.769531 C 223.882812 155.546875 224.011719 155.355469 224.183594 155.1875 C 224.351562 155.015625 224.546875 154.886719 224.765625 154.796875 C 224.984375 154.703125 225.214844 154.660156 225.453125 154.660156 C 225.691406 154.660156 225.921875 154.703125 226.140625 154.796875 C 226.363281 154.886719 226.554688 155.015625 226.726562 155.1875 C 226.894531 155.355469 227.023438 155.546875 227.113281 155.769531 C 227.207031 155.988281 227.25 156.21875 227.25 156.457031 Z M 227.25 156.457031 " fill-opacity="0.6" fill-rule="nonzero"/><path fill="#fc8879" d="M 217.789062 156.578125 C 217.765625 157.480469 217.121094 158.230469 216.246094 158.351562 C 216.023438 157.117188 216.109375 155.808594 216.25 154.800781 C 217.121094 154.921875 217.824219 155.214844 217.789062 156.578125 Z M 217.789062 156.578125 " fill-opacity="0.6" fill-rule="nonzero"/><path fill="#1f3c88" d="M 205.402344 184.359375 L 208.445312 175.511719 L 208.886719 175.664062 L 205.84375 184.511719 Z M 205.402344 184.359375 " fill-opacity="1" fill-rule="nonzero"/><path fill="#1f3c88" d="M 235.441406 183.53125 L 236.257812 172.984375 L 236.722656 173.019531 L 235.90625 183.566406 Z M 235.441406 183.53125 " fill-opacity="1" fill-rule="nonzero"/><path fill="#e28b6d" d="M 189.335938 170.546875 C 189.328125 170.550781 189.328125 170.558594 189.324219 170.5625 C 188.402344 172.597656 187.25 174.417969 185.570312 175.761719 L 184.140625 173.289062 L 189.316406 170.554688 Z M 189.335938 170.546875 " fill-opacity="0.6" fill-rule="nonzero"/><path fill="#102048" d="M 229.085938 155.003906 C 228.9375 154.746094 228.867188 154.433594 228.890625 154.121094 C 228.910156 153.804688 229.042969 153.488281 229.28125 153.25 C 229.511719 153.007812 229.890625 152.859375 230.234375 152.953125 C 230.582031 153.03125 230.816406 153.285156 230.960938 153.539062 L 230.816406 153.65625 C 230.601562 153.492188 230.375 153.375 230.167969 153.359375 C 229.957031 153.335938 229.765625 153.429688 229.609375 153.582031 C 229.449219 153.730469 229.34375 153.949219 229.28125 154.179688 C 229.226562 154.417969 229.226562 154.671875 229.257812 154.941406 Z M 229.085938 155.003906 " fill-opacity="1" fill-rule="nonzero"/><path fill="#fbc343" d="M 230.230469 115.433594 L 223.882812 112.625 L 228.9375 101.183594 L 232.597656 102.800781 C 234.078125 103.457031 234.757812 105.191406 234.101562 106.679688 Z M 230.230469 115.433594 " fill-opacity="1" fill-rule="nonzero"/><path fill="#6f3428" d="M 224.617188 110.953125 L 226.351562 107.027344 L 232.703125 109.832031 L 230.964844 113.757812 Z M 224.617188 110.953125 " fill-opacity="0.3" fill-rule="nonzero"/><path fill="#fbc343" d="M 277.097656 140.417969 L 275.597656 139.757812 L 222.300781 116.203125 L 225.597656 108.75 L 278.679688 132.207031 L 280.394531 132.964844 C 280.488281 135.914062 279.550781 138.429688 277.097656 140.417969 Z M 277.097656 140.417969 " fill-opacity="1" fill-rule="nonzero"/><path fill="#bb9132" d="M 277.097656 140.417969 L 275.597656 139.757812 C 276.40625 137.179688 277.367188 134.644531 278.679688 132.207031 L 280.394531 132.964844 C 280.488281 135.914062 279.550781 138.429688 277.097656 140.417969 Z M 277.097656 140.417969 " fill-opacity="1" fill-rule="nonzero"/><path fill="#fbc343" d="M 284.433594 158.417969 C 278.636719 155.855469 275.695312 149.167969 276.667969 142.089844 C 276.917969 140.222656 277.441406 138.335938 278.261719 136.484375 C 279.035156 134.730469 280.015625 133.140625 281.144531 131.753906 C 285.722656 126.101562 292.753906 123.683594 298.636719 126.28125 C 305.964844 129.519531 308.730469 139.335938 304.808594 148.214844 C 300.886719 157.085938 291.761719 161.65625 284.433594 158.417969 Z M 284.433594 158.417969 " fill-opacity="1" fill-rule="nonzero"/><path fill="#ffffff" d="M 295.886719 132.484375 C 296.421875 132.71875 296.921875 133.015625 297.390625 133.375 C 297.859375 133.730469 298.285156 134.144531 298.667969 134.609375 C 299.054688 135.074219 299.386719 135.585938 299.671875 136.140625 C 299.957031 136.695312 300.1875 137.285156 300.363281 137.910156 C 300.539062 138.535156 300.65625 139.179688 300.71875 139.851562 C 300.777344 140.519531 300.777344 141.195312 300.714844 141.882812 C 300.65625 142.574219 300.539062 143.257812 300.363281 143.9375 C 300.1875 144.617188 299.957031 145.28125 299.671875 145.925781 C 299.382812 146.574219 299.050781 147.191406 298.664062 147.777344 C 298.28125 148.367188 297.855469 148.914062 297.386719 149.421875 C 296.917969 149.929688 296.414062 150.386719 295.882812 150.792969 C 295.347656 151.199219 294.789062 151.546875 294.210938 151.835938 C 293.628906 152.128906 293.039062 152.355469 292.4375 152.515625 C 291.832031 152.679688 291.230469 152.777344 290.628906 152.804688 C 290.023438 152.835938 289.433594 152.796875 288.855469 152.691406 C 288.273438 152.585938 287.71875 152.414062 287.183594 152.179688 C 286.648438 151.945312 286.148438 151.648438 285.679688 151.289062 C 285.210938 150.933594 284.785156 150.519531 284.402344 150.054688 C 284.015625 149.589844 283.683594 149.078125 283.398438 148.523438 C 283.113281 147.96875 282.882812 147.378906 282.707031 146.753906 C 282.53125 146.128906 282.414062 145.484375 282.351562 144.8125 C 282.292969 144.144531 282.292969 143.46875 282.355469 142.78125 C 282.414062 142.089844 282.53125 141.40625 282.707031 140.726562 C 282.882812 140.046875 283.113281 139.382812 283.398438 138.738281 C 283.683594 138.089844 284.019531 137.472656 284.40625 136.886719 C 284.789062 136.296875 285.214844 135.75 285.683594 135.242188 C 286.152344 134.734375 286.652344 134.277344 287.1875 133.871094 C 287.722656 133.464844 288.28125 133.117188 288.859375 132.828125 C 289.4375 132.535156 290.03125 132.308594 290.632812 132.148438 C 291.238281 131.984375 291.839844 131.886719 292.441406 131.859375 C 293.046875 131.828125 293.636719 131.867188 294.214844 131.972656 C 294.796875 132.078125 295.351562 132.246094 295.886719 132.484375 Z M 295.886719 132.484375 " fill-opacity="1" fill-rule="nonzero"/><path fill="#bb9132" d="M 287.183594 152.191406 C 286.878906 152.054688 286.585938 151.902344 286.3125 151.730469 C 290.613281 152.988281 295.625 150.210938 297.863281 145.144531 C 300.105469 140.074219 298.785156 134.496094 294.957031 132.164062 C 295.269531 132.25 295.582031 132.363281 295.886719 132.5 C 300.378906 134.484375 302.070312 140.5 299.667969 145.941406 C 297.265625 151.378906 291.675781 154.175781 287.183594 152.191406 Z M 287.183594 152.191406 " fill-opacity="1" fill-rule="nonzero"/><path fill="#fbc343" d="M 257.398438 96.273438 L 257.082031 96.289062 C 256.269531 96.324219 255.570312 95.691406 255.535156 94.875 L 254.695312 76.585938 C 254.65625 75.769531 255.292969 75.074219 256.105469 75.035156 L 256.425781 75.019531 C 257.238281 74.984375 257.933594 75.621094 257.972656 76.433594 L 258.8125 94.726562 C 258.851562 95.539062 258.214844 96.238281 257.398438 96.273438 Z M 257.398438 96.273438 " fill-opacity="1" fill-rule="nonzero"/><path fill="#fbc343" d="M 276.648438 104.519531 L 276.832031 104.78125 C 277.296875 105.449219 278.226562 105.613281 278.894531 105.144531 L 293.90625 94.660156 C 294.574219 94.191406 294.738281 93.265625 294.269531 92.597656 L 294.089844 92.335938 C 293.621094 91.667969 292.695312 91.503906 292.027344 91.96875 L 277.015625 102.457031 C 276.347656 102.921875 276.183594 103.851562 276.648438 104.519531 Z M 276.648438 104.519531 " fill-opacity="1" fill-rule="nonzero"/><path fill="#fbc343" d="M 268.199219 99.847656 C 267.355469 99.515625 266.941406 98.558594 267.269531 97.71875 L 275.597656 76.480469 C 275.925781 75.640625 276.882812 75.222656 277.722656 75.554688 C 278.5625 75.882812 278.980469 76.839844 278.652344 77.679688 L 270.324219 98.917969 C 269.996094 99.757812 269.039062 100.175781 268.199219 99.847656 Z M 268.199219 99.847656 " fill-opacity="1" fill-rule="nonzero"/></svg>