<?xml version="1.0" encoding="utf-8"?>
<!-- Generator: Adobe Illustrator 27.5.0, SVG Export Plug-In . SVG Version: 6.00 Build 0)  -->
<svg version="1.1" id="Layer_1" xmlns="http://www.w3.org/2000/svg" xmlns:xlink="http://www.w3.org/1999/xlink" x="0px" y="0px"
	 viewBox="0 0 2000 2000" style="enable-background:new 0 0 2000 2000;" xml:space="preserve">
<g>
	<rect id="Background" style="fill:#FFFFFF;" width="2000" height="2000"/>
	<g>
		<g>
			<g>
				
					<rect x="926.801" y="1335.967" style="fill:none;stroke:#BBC8EB;stroke-width:2.5;stroke-miterlimit:10;" width="86.334" height="43.317"/>
				
					<rect x="1013.135" y="1335.967" style="fill:none;stroke:#BBC8EB;stroke-width:2.5;stroke-miterlimit:10;" width="86.334" height="43.317"/>
			</g>
			<g>
				
					<rect x="1605.665" y="982.517" style="fill:none;stroke:#BBC8EB;stroke-width:2.5;stroke-miterlimit:10;" width="86.334" height="43.317"/>
				
					<rect x="1691.999" y="982.517" style="fill:none;stroke:#BBC8EB;stroke-width:2.5;stroke-miterlimit:10;" width="86.334" height="43.317"/>
			</g>
			<g>
				
					<rect x="784.301" y="508.467" style="fill:none;stroke:#BBC8EB;stroke-width:2.5;stroke-miterlimit:10;" width="86.334" height="43.317"/>
				
					<rect x="870.635" y="508.467" style="fill:none;stroke:#BBC8EB;stroke-width:2.5;stroke-miterlimit:10;" width="86.334" height="43.317"/>
			</g>
		</g>
		<g>
			<rect x="274.666" y="744.03" style="fill:#708CD5;" width="518.167" height="865.866"/>
			<rect x="307.5" y="777.396" style="fill:#D3DFFF;" width="452.5" height="832.5"/>
			
				<rect x="374.417" y="851.859" style="fill:none;stroke:#FFFFFF;stroke-width:3.75;stroke-miterlimit:10;" width="318.666" height="184.015"/>
			
				<rect x="374.417" y="1296.686" style="fill:none;stroke:#FFFFFF;stroke-width:3.75;stroke-miterlimit:10;" width="318.666" height="252.302"/>
			<g>
				<path style="fill:#FFFFFF;" d="M692.795,1139.459c0-22.102-19.133-39.736-41.74-37.241c-17.263,1.905-31.18,15.914-33,33.186
					c-1.442,13.69,4.519,26.043,14.34,33.659v29.091c0,12.66,10.263,22.923,22.923,22.923h0c12.66,0,22.923-10.263,22.923-22.923
					v-29.091C687.082,1162.207,692.795,1151.512,692.795,1139.459z"/>
				<g>
					<path style="opacity:0.3;fill:#1F3C88;" d="M667.617,1198.778v-29.091c9.821-7.616,15.782-19.969,14.34-33.659
						c-1.82-17.272-15.736-31.281-32.999-33.186c-0.418-0.046-0.826-0.037-1.242-0.07c3.781-0.78,7.764-1.008,11.867-0.555
						c17.263,1.905,31.18,15.914,32.999,33.186c1.442,13.69-4.519,26.043-14.34,33.659v29.091c0,12.66-10.263,22.923-22.923,22.923
						c-1.354,0-2.674-0.14-3.964-0.366C660.765,1217.856,667.617,1209.12,667.617,1198.778z"/>
				</g>
			</g>
			<g>
				<path style="opacity:0.3;fill:#1F3C88;" d="M626.588,990.417H443.412c-15.627,0-28.412-12.786-28.412-28.412V935.86
					c0-15.627,12.786-28.412,28.412-28.412h183.175c15.627,0,28.412,12.786,28.412,28.412v26.144
					C655,977.631,642.214,990.417,626.588,990.417z"/>
				<path style="fill:#1F3C88;" d="M626.588,982.083H443.412c-15.627,0-28.412-12.786-28.412-28.412v-26.144
					c0-15.627,12.786-28.412,28.412-28.412h183.175c15.627,0,28.412,12.786,28.412,28.412v26.144
					C655,969.298,642.214,982.083,626.588,982.083z"/>
				<g>
					<path style="fill:#FFFFFF;" d="M440.854,949.276c-0.044-0.765,0.405-1.171,1.126-1.171h4.951c0.676,0,1.036,0.361,1.171,1.081
						c0.36,1.62,1.71,2.43,4.366,2.43c2.926,0,3.871-1.125,3.871-2.43c0-1.846-2.25-2.656-4.996-3.601
						c-4.456-1.531-10.083-3.376-10.083-10.264c0-6.301,5.132-9.453,10.488-9.453c5.266,0,10.308,2.836,10.848,9.363
						c0.045,0.765-0.405,1.171-1.126,1.171h-4.951c-0.675,0-1.035-0.36-1.171-1.08c-0.36-1.665-1.531-2.431-3.601-2.431
						c-2.251,0-3.286,1.125-3.286,2.431c0,1.891,1.846,2.79,4.457,3.736c4.501,1.575,10.623,3.196,10.623,10.128
						c0,6.301-5.042,9.452-11.073,9.452C446.572,958.639,441.395,955.803,440.854,949.276z"/>
					<path style="fill:#FFFFFF;" d="M466.686,948.286v-20.662c0-0.72,0.405-1.125,1.126-1.125h4.951c0.72,0,1.125,0.405,1.125,1.125
						v20.032c0,2.385,1.125,3.961,4.501,3.961c3.376,0,4.502-1.576,4.502-3.961v-20.032c0-0.72,0.405-1.125,1.126-1.125h4.951
						c0.72,0,1.126,0.405,1.126,1.125v20.662c0,6.752-5.222,10.353-11.704,10.353C471.907,958.639,466.686,955.038,466.686,948.286z
						"/>
					<path style="fill:#FFFFFF;" d="M493.684,942.255c0-9.274,6.887-16.385,16.385-16.385c7.202,0,13.324,4.502,15.17,11.074
						c0.179,0.764-0.226,1.26-0.991,1.26h-5.311c-0.63,0-0.99-0.315-1.26-0.901c-1.261-2.745-4.187-4.41-7.607-4.41
						c-5.582,0-9.183,3.735-9.183,9.363c0,5.626,3.601,9.363,9.183,9.363c3.42,0,6.346-1.666,7.607-4.412
						c0.27-0.585,0.63-0.9,1.26-0.9h5.311c0.765,0,1.171,0.449,0.991,1.169c-1.755,6.572-7.922,11.163-15.17,11.163
						C500.571,958.639,493.684,951.527,493.684,942.255z"/>
					<path style="fill:#FFFFFF;" d="M527.299,942.255c0-9.274,6.887-16.385,16.385-16.385c7.202,0,13.324,4.502,15.17,11.074
						c0.179,0.764-0.226,1.26-0.991,1.26h-5.311c-0.63,0-0.99-0.315-1.26-0.901c-1.261-2.745-4.187-4.41-7.607-4.41
						c-5.582,0-9.183,3.735-9.183,9.363c0,5.626,3.601,9.363,9.183,9.363c3.42,0,6.346-1.666,7.607-4.412
						c0.27-0.585,0.63-0.9,1.26-0.9h5.311c0.765,0,1.171,0.449,0.991,1.169c-1.757,6.572-7.922,11.163-15.17,11.163
						C534.186,958.639,527.299,951.527,527.299,942.255z"/>
					<path style="fill:#FFFFFF;" d="M581.169,952.202v4.681c0,0.72-0.405,1.125-1.125,1.125h-15.53h-1.126
						c-0.72,0-1.125-0.405-1.125-1.125v-29.259c0-0.72,0.405-1.125,1.125-1.125h6.077h10.354c0.72,0,1.126,0.405,1.126,1.125v4.681
						c0,0.72-0.405,1.125-1.126,1.125h-10.354v5.267h9.229c0.72,0,1.125,0.405,1.125,1.125v4.501c0,0.72-0.405,1.125-1.125,1.125
						h-9.229v5.626h10.579C580.764,951.077,581.169,951.482,581.169,952.202z"/>
					<path style="fill:#FFFFFF;" d="M583.457,949.276c-0.044-0.765,0.405-1.171,1.126-1.171h4.951c0.676,0,1.036,0.361,1.171,1.081
						c0.36,1.62,1.71,2.43,4.366,2.43c2.926,0,3.871-1.125,3.871-2.43c0-1.846-2.25-2.656-4.996-3.601
						c-4.456-1.531-10.083-3.376-10.083-10.264c0-6.301,5.132-9.453,10.488-9.453c5.266,0,10.308,2.836,10.848,9.363
						c0.045,0.765-0.405,1.171-1.125,1.171h-4.951c-0.675,0-1.035-0.36-1.171-1.08c-0.36-1.665-1.531-2.431-3.601-2.431
						c-2.251,0-3.286,1.125-3.286,2.431c0,1.891,1.846,2.79,4.457,3.736c4.501,1.575,10.623,3.196,10.623,10.128
						c0,6.301-5.042,9.452-11.073,9.452C589.175,958.639,583.998,955.803,583.457,949.276z"/>
					<path style="fill:#FFFFFF;" d="M607.982,949.276c-0.045-0.765,0.405-1.171,1.125-1.171h4.952c0.675,0,1.035,0.361,1.169,1.081
						c0.36,1.62,1.711,2.43,4.366,2.43c2.926,0,3.871-1.125,3.871-2.43c0-1.846-2.25-2.656-4.996-3.601
						c-4.456-1.531-10.083-3.376-10.083-10.264c0-6.301,5.132-9.453,10.488-9.453c5.267,0,10.309,2.836,10.848,9.363
						c0.045,0.765-0.405,1.171-1.126,1.171h-4.951c-0.675,0-1.035-0.36-1.171-1.08c-0.36-1.665-1.531-2.431-3.601-2.431
						c-2.251,0-3.286,1.125-3.286,2.431c0,1.891,1.846,2.79,4.457,3.736c4.501,1.575,10.622,3.196,10.622,10.128
						c0,6.301-5.042,9.452-11.073,9.452C613.699,958.639,608.523,955.803,607.982,949.276z"/>
				</g>
			</g>
		</g>
		<g>
			<g>
				<g>
					<path style="fill:#EE6F57;" d="M1537.5,1448.75c49.375,3.75,75.953,32.498,96.25,55c22.137,24.541,44.662,38.539,52.083,61.25
						C1622.5,1560.833,1548.75,1523.125,1537.5,1448.75z"/>
				</g>
				<g>
					<path style="fill:#AE5140;" d="M1573.55,1372.366c0,0,69.992,41.384,79.992,85.55c8.635,38.14,17.931,78.85,12.224,110.834
						C1595.417,1523.125,1568.542,1453.75,1573.55,1372.366z"/>
				</g>
				<g>
					<path style="fill:#AE5140;" d="M1794.375,1463.125c-42.396,0.291-71.353,18.462-93.75,33.75s-27.191,42.451-35.616,60.152
						C1724.921,1547.733,1788.771,1495.418,1794.375,1463.125z"/>
				</g>
				<g>
					<path style="fill:#EE6F57;" d="M1737.2,1303.679c19.702,45.156,23.416,97.1,10.339,144.6
						c-13.078,47.499-42.856,90.223-82.894,118.93C1606.759,1468.814,1650.267,1341.386,1737.2,1303.679z"/>
					<g>
						<g>
							
								<rect x="1613.809" y="1432.5" transform="matrix(0.2559 -0.9667 0.9667 0.2559 -123.488 2707.0769)" style="fill:#FFFFFF;" width="165.654" height="2.5"/>
						</g>
						<g>
							
								<rect x="1697.882" y="1352.84" transform="matrix(0.9774 -0.2116 0.2116 0.9774 -253.2322 390.708)" style="fill:#FFFFFF;" width="2.498" height="51.695"/>
						</g>
						<g>
							
								<rect x="1685.743" y="1415.174" transform="matrix(0.6618 -0.7497 0.7497 0.6618 -481.8387 1764.7274)" style="fill:#FFFFFF;" width="58.657" height="2.501"/>
						</g>
						<g>
							
								<rect x="1676.011" y="1414.928" transform="matrix(0.9315 -0.3638 0.3638 0.9315 -409.7997 709.0802)" style="fill:#FFFFFF;" width="2.5" height="54.743"/>
						</g>
						<g>
							
								<rect x="1674.281" y="1478.36" transform="matrix(0.7757 -0.6311 0.6311 0.7757 -552.2712 1405.4254)" style="fill:#FFFFFF;" width="53.276" height="2.499"/>
						</g>
					</g>
				</g>
			</g>
			<path style="fill:#AE5140;" d="M1694.672,1610.142h-73.095c-20.835,0-38.348-15.643-40.692-36.345l-3.385-29.905h161.25
				l-3.385,29.905C1733.021,1594.499,1715.507,1610.142,1694.672,1610.142z"/>
		</g>
		<line style="fill:none;stroke:#102048;stroke-width:3.75;stroke-miterlimit:10;" x1="150" y1="1610" x2="1865" y2="1610"/>
		<g>
			<g>
				<path style="fill:#102048;" d="M1009.783,909.574c0,0-33.544,19.574-28.855,33.537l20.105,3.755L1009.783,909.574z"/>
				<g>
					<g>
						<path style="fill:#F9B384;" d="M1004.293,907.864l-18.968,12.231c-4.221,0.825-14.517-5.255-20.419-17.471
							c-0.024-0.005-0.024-0.005-0.024-0.005c-1.177-0.665-2.32-1.648-3.314-2.629c-1.669-1.654-2.275-3.937-1.895-6.015
							c0.354-1.932,1.52-3.666,3.47-4.633c0.212-4.705,1.442-8.15,5.778-7.83c-0.052-4.354,2.344-7.211,10.106-6.788
							c-0.654-6.243,2.529-7.753,7.757-6.753c3.809,0.728,7.256,2.76,9.981,5.52c0.788,0.798,1.538,1.608,2.243,2.421
							c0.948,1.097,1.8,2.302,2.5,3.529c2.56,4.289,3.749,9.25,3.479,14.269L1004.293,907.864z"/>
						<g>
							<path style="fill:#E28B6D;" d="M995.601,889.192l-5.031-5.467c-3.342,1.459-6.155,1.704-8.364,0.731
								c-2.51-1.11-3.256-3.391-3.286-3.488l-0.133-0.422l6.742-5.701c2.04-1.542,6.92-1.727,9.398-1.193l-0.283,1.301
								c-2.41-0.524-6.797-0.192-8.284,0.93l-6.002,5.077c0.289,0.583,0.992,1.67,2.408,2.286c1.938,0.846,4.528,0.535,7.689-0.93
								l0.441-0.204l5.684,6.178L995.601,889.192z"/>
						</g>
						<g>
							<path style="fill:#E28B6D;" d="M968.699,903.95c-1.18,0-2.501-0.232-3.989-0.691l0.393-1.272
								c4.008,1.238,6.382,0.719,8.202-1.788l1.077,0.781C972.933,902.977,971.111,903.95,968.699,903.95z"/>
						</g>
						<g>
							<path style="fill:#E28B6D;" d="M985.215,899.53c-1.635,0-3.49-0.897-6.217-2.824c-4.294-3.03-7.095-8.079-7.212-8.292
								l1.167-0.64c0.027,0.049,2.775,4.996,6.812,7.845c4.311,3.044,5.781,3.024,7.632,1.809c0.237-0.155,0.37-0.366,0.419-0.663
								c0.231-1.403-1.458-3.943-2.067-4.722c-0.187-0.256-4.229-5.842-5.349-8.817l1.245-0.469
								c1.058,2.808,5.126,8.429,5.166,8.485c0.263,0.336,2.684,3.508,2.318,5.737c-0.109,0.662-0.455,1.201-1.002,1.561
								C987.14,899.191,986.219,899.53,985.215,899.53z"/>
						</g>
						<g>
							<path style="fill:none;stroke:#AE5140;stroke-width:0.8984;stroke-miterlimit:10;" d="M967.158,895.208"/>
						</g>
						<g>
							<path style="fill:#E28B6D;" d="M975.373,901.208c-2.861,0-5.823-1.334-8.42-5.169c-0.109-0.16-0.187-0.281-0.24-0.342
								l0.775-1.068c0.192,0.11,0.302,0.272,0.568,0.664c1.302,1.924,5.271,7.78,13.813,2.363l0.713,1.123
								C980.491,900.107,977.972,901.208,975.373,901.208z"/>
						</g>
						<g>
							<path style="fill:#E28B6D;" d="M990.544,896.946c-0.625,0-1.313-0.112-2.063-0.337l0.383-1.274
								c1.553,0.466,2.705,0.348,3.424-0.353c1.884-1.827,0.947-7.273,0.426-9.217L994,885.42c0.086,0.316,2.044,7.771-0.784,10.515
								C992.523,896.609,991.628,896.946,990.544,896.946z"/>
						</g>
					</g>
					<polygon style="fill:#F9B384;" points="1019.633,926.324 996.008,948.274 989.708,937.399 982.083,924.199 978.583,918.149 
						976.383,914.349 1003.983,900.024 1004.608,901.099 1009.683,909.624 1009.733,909.674 					"/>
				</g>
				<polygon style="fill:#F9B384;" points="1221.433,830.624 1213.458,895.974 1167.083,893.949 1169.908,875.949 1172.858,857.174 
					1173.508,853.024 				"/>
				<path style="fill:#102048;" d="M1203.058,856.449c0,0-7.725,15.725-33.15,19.5l2.95-18.775L1203.058,856.449z"/>
				<path style="fill:#F9B384;" d="M1368.533,741.137c1.23-21.945,4.796-40.605,14.063-51.25l40,17.188
					c-6.355,20.437-16.132,37.851-26.563,54.688L1368.533,741.137z"/>
				<path style="fill:#EE6F57;" d="M1353.533,1213.324l53.75-0.625l8.75,90c-12.716-11.87-23.195-28.871-31.875-50l-36.25-12.5
					L1353.533,1213.324z"/>
				<path style="fill:#EE6F57;" d="M1157.807,1434.076l20.92,62.798l-63.51,46.212c2.34-17.237,10.161-35.613,22.389-54.907
					l-10.745-36.808L1157.807,1434.076z"/>
				<path style="fill:#1F3C88;" d="M1134.158,1267.074l42.5,178.75l-62.5,22.5l-56.925-153.5c-8.55-23.025-10.325-48-5.125-72
					l38.3-177l8.75-40l65,15l11.15,83.575l1.35,10.175l-21.2,66.1L1134.158,1267.074z"/>
				<path style="opacity:0.6;fill:#102048;" d="M1176.658,1134.574l-25.938,80.625c-15-48.65,4.688-107.5,4.688-107.5l19.9,16.7
					L1176.658,1134.574z"/>
				<path style="fill:#1F3C88;" d="M1230.824,1056.658l50,154.167l85-4.167l-7.5,75.833l-95.67,11.255
					c-18.93,2.227-37.105-8.125-44.847-25.542l-103.65-233.213l110-4.167L1230.824,1056.658z"/>
				<path style="fill:#102048;" d="M1221.61,823.116c13.275-7.758,19.817-19.626,19.05-32.69c-1-17.014-14.195-31.266-31.027-33.945
					c-13.356-2.126-28.788,0.887-45.532,7.149c-31.169-23.926-61.9,35.121-9.439,50.266L1221.61,823.116z"/>
				<path style="fill:#F9B384;" d="M1223.958,830.624c0,0-9.025,35.675-45.9,35.05c-16.525-0.275-22.825-10.225-24.75-21.125
					c-1.175-6.6-0.725-13.575,0.025-18.95c0.775-5.525,1.875-9.35,1.875-9.35l-1.475-20.85l22.1-12.7l45,9.175L1223.958,830.624z"/>
				<path style="fill:#102048;" d="M1218.741,820.824c2.917-8.75-0.417-18.958-12.083-23.125
					c-15.445,9.379-38.75,7.917-57.083-1.042l-2.708-6.667l14.167-13.542l38.333-4.167l29.375,11.25l0.833,17.5l-2.5,14.583
					L1218.741,820.824z"/>
				<path style="fill:#102048;" d="M1167.713,815.313c0,2.764-1.432,5.004-3.199,5.004c-1.767,0-3.2-2.241-3.2-5.004
					c0-2.764,1.432-5.004,3.2-5.004C1166.28,810.309,1167.713,812.549,1167.713,815.313z"/>
				<path style="fill:#102048;" d="M1195.24,818.106c-0.231,2.871-1.906,5.078-3.742,4.93c-1.835-0.148-3.136-2.595-2.904-5.465
					c0.231-2.871,1.906-5.078,3.742-4.93C1194.171,812.789,1195.471,815.235,1195.24,818.106z"/>
				<path style="fill:#102048;" d="M1177.798,815.463c-0.901,1.957-1.903,3.817-2.978,5.688c-1.089,1.913-2.427,3.569-3.206,5.297
					c-0.813,1.715-0.889,3.377-0.003,5.036c0.855,1.698,2.258,3.34,3.436,5.167l-0.739,0.64c-1.591-1.388-3.323-2.709-4.603-4.714
					c-0.666-0.995-1.122-2.248-1.168-3.55c-0.035-1.302,0.309-2.556,0.817-3.621c1.036-2.14,2.465-3.776,3.703-5.417
					c1.241-1.698,2.519-3.43,3.917-5.053L1177.798,815.463z"/>
				<path style="fill:#FFFFFF;" d="M1167.667,846.011c-0.517-0.088,21.754-3.806,21.754-3.806
					C1188.295,857.858,1171.578,859.506,1167.667,846.011z"/>
				<path style="opacity:0.6;fill:#102048;" d="M1099.83,1059.366c43.494,13.92,85.383,14.828,125.173-1.284l9.95-33.701
					l-131.593,5.777L1099.83,1059.366z"/>
				<path style="fill:#FFFFFF;" d="M1224.158,952.699l-10.625,96.875c-14.55,3.775-28.5,6.175-41.65,6.875
					c-7.45,0.4-14.65,0.25-21.55-0.5c-12.675-1.375-24.425-4.8-35.05-10.625c-3.4-1.875-6.7-4-9.875-6.375l19.45-78.15v-0.075
					l7.025-28.25l4.15-16.65l32.8-33.1c9.375,8.45,27.825,9.65,46.275,1.85l1.35,10.2L1224.158,952.699z"/>
				<path style="opacity:0.3;fill:#1F3C88;" d="M1224.158,952.699l-10.625,96.875c-14.55,3.775-28.5,6.175-41.65,6.875
					c2.588-31.875,7.938-105.85,38.213-158.75l6.362-2.925L1224.158,952.699z"/>
				<g style="opacity:0.3;">
					<path style="fill:#1F3C88;" d="M1161.97,894.887c2.601,4.797,6.369,8.629,10.903,10.888c4.526,2.265,9.65,3.141,14.757,2.947
						c5.124-0.128,10.242-1.287,15.194-2.983c4.958-1.731,9.732-4.076,14.458-6.789c-3.759,3.942-8.334,7.154-13.354,9.499
						c-5.014,2.364-10.529,3.81-16.186,4.02c-5.625,0.147-11.498-1.029-16.333-4.172
						C1166.545,905.239,1163.088,900.225,1161.97,894.887z"/>
				</g>
				<path style="opacity:0.3;fill:#1F3C88;" d="M1150.333,1055.949c-12.675-1.375-24.425-4.8-35.05-10.625
					c2.325-18.325,6.775-58.95,9.575-84.525v-0.075c1.45-13.2,2.425-22.4,2.425-22.4l4.6-5.85l34.775-44.15
					C1169.708,950.974,1162.608,1019.324,1150.333,1055.949z"/>
				<path style="fill:#708CD5;" d="M1168.833,882.724c-1.55,53.975-21.35,164.775-39.675,203.925c-19.05-0.4-54.275-3.5-66.875-8.95
					l41.875-115.625c-17.475,12.475-37.375,25.85-56.35,36.45c-11.325,6.3-27.575,4.375-34.7-6.45l-32.175-48.975
					c2.6-1.325,5-2.85,7.25-4.525c9.8-7.275,16.4-17.5,21.6-29l32.5,38.75l55.5-45.875c6.225-5.175,13.675-8.675,21.6-10.225
					L1168.833,882.724z"/>
				<path style="fill:#708CD5;" d="M1214.834,884.672c-25.938,43.125-33.75,131.077-31.301,196.777
					c38.125,5.208,68.125-21.25,68.125-21.25l7.188-106.25l68.793-65.08c8.883-8.858,16.435-18.957,22.421-29.981l54.098-99.626
					l-38.75-26.354l-63.333,100.417l-38.549,40.116c-8.06,8.388-19.388,12.828-31.001,12.15L1214.834,884.672z"/>
				<path style="fill:#F9B384;" d="M1236.658,826.033c-1.25,8.333-9.35,13.958-16.042,13.958s-6.624-5.659-6.624-13.668
					s5.348-14.874,12.04-14.874C1232.724,811.449,1238.051,816.741,1236.658,826.033z"/>
				<circle style="opacity:0.6;fill:#FC8879;" cx="1202.419" cy="834.438" r="9.589"/>
				<path style="opacity:0.6;fill:#FC8879;" d="M1161.533,835.074c-0.124,4.823-3.55,8.825-8.225,9.475
					c-1.175-6.6-0.725-13.575,0.025-18.95C1157.983,826.249,1161.719,827.813,1161.533,835.074z"/>
				<g>
					
						<rect x="1079.829" y="958.793" transform="matrix(0.3253 -0.9456 0.9456 0.3253 -162.43 1692.4353)" style="fill:#1F3C88;" width="49.907" height="2.499"/>
				</g>
				<g>
					
						<rect x="1230.948" y="949.575" transform="matrix(0.0772 -0.997 0.997 0.0772 213.9261 2132.7864)" style="fill:#1F3C88;" width="56.42" height="2.498"/>
				</g>
				<path style="opacity:0.6;fill:#E28B6D;" d="M1009.783,909.574c-0.025,0.025-0.025,0.075-0.05,0.1
					c-4.925,10.85-11.075,20.55-20.025,27.725l-7.625-13.2l27.6-14.575L1009.783,909.574z"/>
				<path style="fill:#102048;" d="M1221.784,826.68c-0.785-1.374-1.169-3.028-1.03-4.704c0.107-1.677,0.814-3.369,2.079-4.653
					c1.231-1.283,3.259-2.075,5.094-1.578c1.837,0.431,3.097,1.77,3.855,3.132l-0.756,0.619c-1.147-0.88-2.349-1.492-3.465-1.586
					c-1.116-0.114-2.151,0.375-2.98,1.185c-0.843,0.81-1.409,1.958-1.74,3.201c-0.308,1.258-0.305,2.621-0.137,4.055
					L1221.784,826.68z"/>
			</g>
			<g>
				<g>
					<path style="fill:#FBC343;" d="M1227.901,615.638l-33.868-14.967l26.971-61.029l19.523,8.628
						c7.899,3.491,11.513,12.748,8.005,20.684L1227.901,615.638z"/>
					
						<rect x="1208.066" y="570.304" transform="matrix(0.4042 -0.9147 0.9147 0.4042 187.9936 1466.2485)" style="opacity:0.3;fill:#6F3428;" width="22.893" height="37.028"/>
					<path style="fill:#FBC343;" d="M1477.858,748.899l-8-3.525l-284.25-125.625l17.575-39.75l283.1,125.1l9.15,4.05
						C1495.933,724.874,1490.933,738.299,1477.858,748.899z"/>
					<path style="fill:#BB9132;" d="M1477.858,748.899l-8-3.525c4.3-13.75,9.425-27.275,16.425-40.275l9.15,4.05
						C1495.933,724.874,1490.933,738.299,1477.858,748.899z"/>
					<g>
						<path style="fill:#FBC343;" d="M1516.98,844.887c-30.924-13.667-46.608-49.323-41.418-87.066
							c1.332-9.966,4.135-20.039,8.499-29.912c4.133-9.352,9.347-17.825,15.378-25.224c24.409-30.14,61.912-43.049,93.283-29.185
							c39.084,17.272,53.847,69.623,32.92,116.978C1604.73,837.795,1556.064,862.159,1516.98,844.887z"/>
						
							<ellipse transform="matrix(0.4042 -0.9147 0.9147 0.4042 231.9572 1874.4705)" style="fill:#FFFFFF;" cx="1554.857" cy="759.181" rx="57.42" ry="47.434"/>
						<path style="fill:#BB9132;" d="M1531.651,811.69c-1.639-0.725-3.192-1.544-4.658-2.46c22.952,6.714,49.676-8.107,61.614-35.12
							c11.954-27.049,4.923-56.789-15.494-69.241c1.663,0.468,3.315,1.064,4.954,1.789c23.957,10.587,32.979,42.676,20.152,71.7
							C1585.41,807.346,1555.608,822.277,1531.651,811.69z"/>
					</g>
				</g>
				<g>
					<path style="fill:#FBC343;" d="M1372.8,513.461l-1.692,0.078c-4.342,0.199-8.058-3.19-8.257-7.532l-4.478-97.558
						c-0.199-4.342,3.19-8.058,7.532-8.257l1.692-0.078c4.342-0.199,8.058,3.19,8.257,7.532l4.478,97.558
						C1380.532,509.546,1377.142,513.262,1372.8,513.461z"/>
					<path style="fill:#FBC343;" d="M1475.459,557.438l0.97,1.388c2.489,3.563,7.442,4.442,11.005,1.953l80.06-55.928
						c3.563-2.489,4.442-7.441,1.953-11.005l-0.97-1.389c-2.489-3.563-7.441-4.442-11.005-1.953l-80.06,55.928
						C1473.849,548.922,1472.97,553.875,1475.459,557.438z"/>
					<path style="fill:#FBC343;" d="M1430.386,532.514L1430.386,532.514c-4.48-1.757-6.708-6.86-4.952-11.34l44.417-113.269
						c1.757-4.48,6.86-6.709,11.34-4.952l0,0c4.48,1.757,6.709,6.86,4.952,11.34l-44.417,113.269
						C1439.969,532.043,1434.866,534.271,1430.386,532.514z"/>
				</g>
			</g>
		</g>
	</g>
</g>
</svg>
